<?xml version="1.0" encoding="UTF-8" standalone="no"?>
<!-- Created with Inkscape (http://www.inkscape.org/) -->

<svg
   width="100"
   height="100"
   viewBox="0 0 26.458333 26.458333"
   version="1.1"
   id="svg5"
   xml:space="preserve"
   inkscape:version="1.2.2 (732a01da63, 2022-12-09)"
   sodipodi:docname="laco.svg"
   xmlns:inkscape="http://www.inkscape.org/namespaces/inkscape"
   xmlns:sodipodi="http://sodipodi.sourceforge.net/DTD/sodipodi-0.dtd"
   xmlns="http://www.w3.org/2000/svg"
   xmlns:svg="http://www.w3.org/2000/svg"><sodipodi:namedview
     id="namedview7"
     pagecolor="#505050"
     bordercolor="#eeeeee"
     borderopacity="1"
     inkscape:showpageshadow="0"
     inkscape:pageopacity="0"
     inkscape:pagecheckerboard="0"
     inkscape:deskcolor="#505050"
     inkscape:document-units="mm"
     showgrid="false"
     inkscape:zoom="4.051698"
     inkscape:cx="83.792029"
     inkscape:cy="68.489803"
     inkscape:window-width="1920"
     inkscape:window-height="991"
     inkscape:window-x="-9"
     inkscape:window-y="-9"
     inkscape:window-maximized="1"
     inkscape:current-layer="layer1" /><defs
     id="defs2" /><g
     inkscape:label="Camada 1"
     inkscape:groupmode="layer"
     id="layer1"
     transform="translate(-115.30273,-65.296097)"><path
       style="fill:#9ac56f;fill-opacity:1;stroke-width:0.0769378"
       d="m 124.64803,91.602906 c -0.25917,-0.203858 -3.11983,-4.163442 -3.22415,-4.462708 -0.16091,-0.461586 -0.0401,-0.680986 1.58915,-2.88582 1.41294,-1.912117 1.56537,-2.147374 1.48663,-2.294478 -0.0482,-0.09015 -0.19887,-0.338138 -0.33473,-0.55108 -0.13585,-0.212939 -0.54251,-0.908648 -0.90369,-1.546019 -1.68668,-2.976509 -2.50948,-5.054253 -2.54217,-6.419528 l -0.0138,-0.577034 1.20486,-2.626253 c 0.66267,-1.444439 1.24523,-2.690906 1.29458,-2.769927 0.14699,-0.235376 1.02229,-0.884286 1.66173,-1.231936 2.43882,-1.325954 5.36631,-1.248083 7.81716,0.207935 0.89972,0.534519 0.95168,0.614392 2.3746,3.650417 1.29486,2.762787 1.29814,2.771144 1.30031,3.317698 0.004,0.984527 -0.58407,2.819022 -1.47112,4.589911 -0.42134,0.841156 -0.66103,1.055232 -1.18107,1.05486 -0.34257,-2.3e-4 -0.70563,-0.201508 -0.85764,-0.475431 -0.20581,-0.370901 -0.12641,-0.761533 0.36536,-1.797314 0.56713,-1.194528 1.08368,-2.702366 1.09054,-3.183347 0.004,-0.279208 -0.0904,-0.548804 -0.4569,-1.30477 l -0.46193,-0.952845 -0.25786,0.645094 c -0.62642,1.567098 -1.51218,3.286755 -2.94781,5.722996 -0.56828,0.964366 -1.52488,2.32857 -3.64162,5.193306 -1.57898,2.136949 -2.87125,3.905678 -2.8717,3.930508 -8.8e-4,0.05483 1.47889,2.11478 1.54927,2.156514 0.0274,0.01626 0.56404,-0.655625 1.19254,-1.493047 0.6285,-0.837422 1.25335,-1.668352 1.38855,-1.846509 0.13521,-0.178158 0.82182,-1.180836 1.52581,-2.228173 0.70398,-1.047337 1.35409,-1.956165 1.44469,-2.019618 0.19392,-0.135828 0.76158,-0.152167 1.00108,-0.02882 0.32578,0.167788 0.54523,0.435023 2.22827,2.713475 2.13448,2.889595 2.07014,2.661288 1.12144,3.97962 -2.04212,2.837739 -2.50739,3.453371 -2.69256,3.562754 -0.30165,0.178189 -0.84656,0.156502 -1.10124,-0.04383 -0.11535,-0.09074 -0.78116,-0.925278 -1.47956,-1.854535 -0.6984,-0.929256 -1.29642,-1.65998 -1.32894,-1.623829 -0.0325,0.03615 -0.61919,0.810103 -1.30372,1.719894 -0.68453,0.909791 -1.3384,1.714573 -1.45304,1.788401 -0.28894,0.186079 -0.86461,0.177512 -1.11131,-0.01655 z m 8.07582,-3.689116 0.77607,-1.070938 -1.03049,-1.391075 c -0.56678,-0.765092 -1.04777,-1.391076 -1.06888,-1.391076 -0.0211,0 -0.38147,0.512989 -0.8008,1.139977 l -0.76242,1.139976 0.9931,1.322037 c 0.5462,0.72712 1.02105,1.322036 1.05522,1.322036 0.0342,0 0.41136,-0.481921 0.8382,-1.070937 z m -6.0695,-8.588896 0.71022,-0.965853 -0.82632,-1.438457 c -1.27574,-2.220816 -2.07376,-3.843049 -2.73142,-5.552529 -0.0659,-0.171168 -0.12369,-0.07892 -0.57693,0.92014 -0.45053,0.993103 -0.49882,1.146268 -0.45716,1.450162 0.0804,0.586749 0.50068,1.698684 1.12433,2.974776 0.62219,1.273129 1.90844,3.577613 1.99683,3.577613 0.0276,0 0.36984,-0.434634 0.76045,-0.965852 z m 2.11973,-3.208515 c 0.3959,-0.678254 1.63239,-2.993096 1.79669,-3.363615 l 0.18679,-0.421226 -0.21826,-0.176743 c -0.65618,-0.531361 -1.64856,-0.790865 -2.43502,-0.636751 -0.5302,0.103896 -1.12816,0.365402 -1.47273,0.644072 l -0.22729,0.183819 0.44459,0.875654 c 0.58248,1.147245 1.68746,3.145456 1.73905,3.144839 0.0223,-2.32e-4 0.10606,-0.112791 0.18618,-0.250049 z m -1.29974,-6.557224 c 1.17777,-0.249259 2.34631,-0.09706 3.44006,0.448046 l 0.67029,0.334066 0.0879,-0.423563 c 0.15819,-0.761971 -0.10702,-1.559583 -0.65839,-1.980133 -1.05101,-0.801648 -3.79757,-0.801648 -4.84859,0 -0.55136,0.42055 -0.81657,1.218162 -0.65838,1.980133 l 0.0879,0.423563 0.67029,-0.334066 c 0.36866,-0.183736 0.91265,-0.385357 1.20886,-0.448046 z"
       id="path856" /></g></svg>
