<?xml version="1.0" encoding="UTF-8" standalone="no"?>
<!-- Created with Inkscape (http://www.inkscape.org/) -->

<svg
   width="100"
   height="100"
   viewBox="0 0 26.458333 26.458334"
   version="1.1"
   id="svg5"
   xml:space="preserve"
   inkscape:version="1.2.2 (732a01da63, 2022-12-09)"
   sodipodi:docname="medical.svg"
   xmlns:inkscape="http://www.inkscape.org/namespaces/inkscape"
   xmlns:sodipodi="http://sodipodi.sourceforge.net/DTD/sodipodi-0.dtd"
   xmlns="http://www.w3.org/2000/svg"
   xmlns:svg="http://www.w3.org/2000/svg"><sodipodi:namedview
     id="namedview7"
     pagecolor="#505050"
     bordercolor="#eeeeee"
     borderopacity="1"
     inkscape:showpageshadow="0"
     inkscape:pageopacity="0"
     inkscape:pagecheckerboard="0"
     inkscape:deskcolor="#505050"
     inkscape:document-units="mm"
     showgrid="false"
     inkscape:zoom="7.75"
     inkscape:cx="50"
     inkscape:cy="50"
     inkscape:window-width="1920"
     inkscape:window-height="991"
     inkscape:window-x="-9"
     inkscape:window-y="-9"
     inkscape:window-maximized="1"
     inkscape:current-layer="layer1" /><defs
     id="defs2" /><g
     inkscape:label="Camada 1"
     inkscape:groupmode="layer"
     id="layer1"
     transform="translate(-13.886405,-81.267946)"><path
       style="fill:#f5a623;stroke-width:0.0828637;fill-opacity:1"
       d="m 28.108835,107.67364 c -2.81648,-0.44808 -5.167476,-2.77414 -5.619482,-5.5599 -0.04817,-0.29684 -0.08633,-1.86407 -0.08669,-3.559064 l -6.27e-4,-3.02867 -0.517897,-0.106853 c -2.987077,-0.616291 -5.29136,-2.89956 -5.999513,-5.944793 -0.170467,-0.733055 -0.266261,-6.010755 -0.118077,-6.505351 0.173878,-0.580346 0.361007,-0.651518 1.713069,-0.651518 h 1.187155 l 0.08512,-0.316137 c 0.130479,-0.484555 0.431264,-0.719661 0.920711,-0.719661 0.348072,0 0.444727,0.03867 0.676952,0.270825 l 0.2709,0.270827 v 1.352937 c 0,1.473714 -0.04476,1.661187 -0.454314,1.90312 -0.530206,0.313199 -1.24345,0.03063 -1.393774,-0.552172 -0.06584,-0.255288 -0.08166,-0.263108 -0.580634,-0.287107 l -0.512946,-0.02468 0.0013,2.220562 c 0.0013,2.522537 0.05446,2.887002 0.576645,3.960704 0.732251,1.505618 2.092397,2.626891 3.731051,3.075788 0.381006,0.104375 0.829589,0.146808 1.532983,0.145008 0.891251,-0.0022 1.06965,-0.02878 1.720355,-0.25558 1.692934,-0.590058 2.931968,-1.746175 3.577514,-3.338102 0.362883,-0.894882 0.46117,-1.718392 0.46117,-3.864026 V 84.223351 H 28.69976 c -0.468618,0 -0.580049,0.02468 -0.580049,0.128412 0,0.239312 -0.250261,0.613971 -0.494472,0.740257 -0.420706,0.217555 -0.809811,0.163809 -1.129659,-0.156038 L 26.213808,84.654243 V 83.27078 c 0,-1.24458 0.01641,-1.406526 0.163577,-1.613188 0.470688,-0.661023 1.51999,-0.441609 1.727398,0.361204 l 0.06647,0.257254 1.24625,0.04143 c 1.871263,0.06221 1.768491,-0.141162 1.767057,3.496884 -0.0013,3.06647 -0.06462,3.615351 -0.567873,4.915841 -0.919813,2.376927 -3.186147,4.241754 -5.728693,4.713782 l -0.538615,0.09999 -0.02177,2.916317 c -0.02411,3.230296 0.01963,3.658486 0.469235,4.593036 0.35681,0.74165 0.990038,1.47832 1.64501,1.91375 1.670004,1.11022 3.758069,1.10968 5.429359,-8.6e-4 1.005589,-0.66852 1.755636,-1.77793 2.006611,-2.96804 0.08953,-0.42455 0.12227,-1.14651 0.12212,-2.69308 l -1.63e-4,-2.113034 -0.560375,-0.263114 c -2.730395,-1.282007 -2.697087,-5.115838 0.0562,-6.468499 0.430333,-0.21142 0.542178,-0.228952 1.46039,-0.228952 0.963655,0 1.011542,0.0086 1.550376,0.279046 1.038155,0.521026 1.783379,1.521775 1.984823,2.665394 0.265175,1.50543 -0.626478,3.159538 -2.033605,3.772551 l -0.548693,0.239023 -0.0016,2.281037 c -0.0016,2.461148 -0.0567,2.939208 -0.461186,3.997738 -0.419622,1.09813 -1.425517,2.38013 -2.38606,3.04101 -0.581818,0.4003 -1.455689,0.81039 -2.137292,1.00299 -0.695042,0.19639 -2.096563,0.278 -2.814038,0.16386 z m 7.777558,-12.606841 c 0.149885,-0.09263 0.369673,-0.334207 0.48842,-0.536836 0.185871,-0.317163 0.211248,-0.441595 0.182409,-0.894465 -0.02396,-0.376203 -0.08883,-0.606811 -0.227767,-0.809568 -0.639727,-0.933624 -1.961251,-0.961278 -2.680862,-0.05611 -0.341615,0.429708 -0.404221,1.147193 -0.146543,1.679484 0.420415,0.868459 1.518243,1.152773 2.384343,0.61749 z"
       id="path248" /></g></svg>
