<?xml version="1.0" encoding="UTF-8" standalone="no"?>
<!-- Created with Inkscape (http://www.inkscape.org/) -->

<svg
   width="26.458336mm"
   height="26.458323mm"
   viewBox="0 0 26.458336 26.458323"
   version="1.1"
   id="svg5"
   xml:space="preserve"
   inkscape:version="1.2.2 (732a01da63, 2022-12-09)"
   sodipodi:docname="tesoura.svg"
   xmlns:inkscape="http://www.inkscape.org/namespaces/inkscape"
   xmlns:sodipodi="http://sodipodi.sourceforge.net/DTD/sodipodi-0.dtd"
   xmlns="http://www.w3.org/2000/svg"
   xmlns:svg="http://www.w3.org/2000/svg"><sodipodi:namedview
     id="namedview7"
     pagecolor="#505050"
     bordercolor="#eeeeee"
     borderopacity="1"
     inkscape:showpageshadow="0"
     inkscape:pageopacity="0"
     inkscape:pagecheckerboard="0"
     inkscape:deskcolor="#505050"
     inkscape:document-units="mm"
     showgrid="false"
     inkscape:zoom="1.0129245"
     inkscape:cx="-17.770327"
     inkscape:cy="158.45209"
     inkscape:window-width="1920"
     inkscape:window-height="991"
     inkscape:window-x="-9"
     inkscape:window-y="-9"
     inkscape:window-maximized="1"
     inkscape:current-layer="layer1" /><defs
     id="defs2" /><g
     inkscape:label="Camada 1"
     inkscape:groupmode="layer"
     id="layer1"
     transform="translate(-97.183376,-48.853547)"><path
       style="fill:#4b91e3;fill-opacity:1;stroke:none;stroke-width:0.115901;stroke-opacity:1"
       d="m 109.66139,75.192407 c -1.96962,-0.637471 -2.95883,-2.582973 -2.33063,-4.583694 l 0.16351,-0.520737 -0.54333,-0.636455 c -0.76656,-0.897935 -0.8543,-1.090944 -0.66985,-1.473423 0.0827,-0.171497 0.29403,-0.391813 0.4696,-0.489592 0.35779,-0.199261 0.4733,-0.154366 1.3022,0.506118 0.36261,0.288931 0.44533,0.313582 0.58251,0.173578 0.16937,-0.172861 2.99914,-4.911543 4.80923,-8.053466 0.59345,-1.030102 1.05884,-1.933209 1.03419,-2.006905 -0.0528,-0.157931 -0.99035,0.323292 -4.91311,2.521786 -3.53279,1.979943 -5.51395,3.140903 -5.51395,3.231168 0,0.03886 0.23507,0.355296 0.52237,0.703191 0.28731,0.347893 0.52238,0.750964 0.52238,0.895713 0,0.371657 -0.34348,0.738925 -0.76728,0.82043 -0.32217,0.06196 -0.44236,-0.0065 -1.11749,-0.636011 l -0.75649,-0.705437 -0.50768,0.189651 c -0.2893,0.108069 -0.85723,0.190693 -1.32027,0.192077 -1.400456,0.0042 -2.432283,-0.638271 -3.070768,-1.911975 -0.884834,-1.765155 -0.145843,-3.835499 1.685399,-4.721785 0.721177,-0.349033 2.195099,-0.321721 2.939829,0.05448 0.72883,0.368169 1.5243,1.260297 1.79476,2.012843 0.11823,0.328979 0.2536,0.621945 0.30082,0.651037 0.076,0.0468 5.90107,-3.143611 10.39604,-5.693926 l 1.62516,-0.922072 0.0842,-1.412599 c 0.0995,-1.669043 0.0284,-1.539721 1.80359,-3.278875 1.07202,-1.05023 1.32673,-1.24398 1.63538,-1.24398 0.4905,0 0.82994,0.354302 0.82994,0.866276 0,0.353731 -0.14293,0.551326 -1.16084,1.604835 L 118.33,52.526089 v 0.825265 0.825263 h 0.84433 0.84432 l 0.92595,-0.929393 c 1.29747,-1.302311 1.65725,-1.537079 2.11289,-1.378739 0.40573,0.140993 0.67747,0.648364 0.55436,1.035045 -0.0435,0.136576 -0.71554,0.889741 -1.49345,1.6737 l -1.41439,1.42538 -1.15798,0.07615 c -0.6369,0.04188 -1.28562,0.08668 -1.44162,0.09954 -0.24195,0.01996 -0.57228,0.516338 -2.24878,3.379243 -3.52455,6.018781 -4.95269,8.531103 -4.89888,8.6179 0.0291,0.0469 0.35723,0.19591 0.72923,0.331118 1.20446,0.43779 2.07733,1.408472 2.34632,2.60926 0.14703,0.656304 -2.5e-4,1.275844 -0.34729,1.460997 -0.60595,0.323273 -1.1819,-0.05443 -1.37245,-0.900054 -0.14248,-0.632328 -0.40106,-1.021498 -0.8668,-1.304589 -1.06642,-0.648192 -2.51763,0.188526 -2.51763,1.451578 0,0.87939 0.68249,1.580274 1.68469,1.730092 0.5484,0.08198 0.86827,0.418904 0.86827,0.914556 0,0.70486 -0.84279,1.04018 -1.8197,0.724 z m -8.21186,-11.828449 c 0.55554,-0.262792 0.86098,-0.808807 0.86098,-1.539099 0,-0.534039 -0.0479,-0.649532 -0.44565,-1.074605 -0.39688,-0.424145 -0.51438,-0.481342 -1.07377,-0.522698 -1.058339,-0.07824 -1.751991,0.534141 -1.764408,1.557682 -0.01651,1.36409 1.200348,2.157012 2.422848,1.57872 z"
       id="path2619" /></g></svg>
